<svg version="1.1" preserveAspectRatio="none" xmlns="http://www.w3.org/2000/svg" width="500" height="500" viewBox="0 0 500 500"><rect width="100%" height="100%" fill="#A1AAB0" fill-opacity="1"/><svg viewBox="63.3198 298.8608 390.7785 289.8445" width="333" height="246.9895823337261" x="83.5px" y="126.5052px" xmlns="http://www.w3.org/2000/svg" xmlns:xlink="http://www.w3.org/1999/xlink" preserveAspectRatio="none"><defs></defs><style>.aIptOCySncolors-3 {fill:#ACC5E1;fill-opacity:1;}.aIptOCySncolors-4 {fill:#D0CBCB;fill-opacity:1;}.aIptOCySncolors-5 {fill:#FFFFFF;fill-opacity:1;}.aIptOCySncolors-6 {fill:#A1AAB0;fill-opacity:1;}.aIptOCySncolors-7 {fill:#E9DBDF;fill-opacity:1;}.companyName {fill:#E9DBDF;fill-opacity:1;}.icon1 {fill:#3D516B;fill-opacity:1;}.icon2 {fill:#F3F3F3;fill-opacity:1;}.icon3 {fill:#576879;fill-opacity:1;}.icon3-str {stroke:#576879;stroke-opacity:1;}</style><g opacity="1" transform="rotate(0 63.3198 298.8608)">
<svg width="390.7785" height="199.8445" x="63.3198" y="298.8608" version="1.1" preserveAspectRatio="none" viewBox="1.0038013458251953 24.93709373474121 98.00059509277344 50.11759948730469">
  <g transform="matrix(1 0 0 1 0 0)" class="icon1"><path d="m26.059 70.461c5.6523 0 10.766-2.2891 14.469-5.9922 2.3672-2.3672 4.1562-5.3086 5.1406-8.6016l0.007812-0.023438 0.007813-0.03125c0.54688-1.8438 0.83984-3.7969 0.83984-5.8125 0-2.0195-0.29297-3.9727-0.83984-5.8125l-0.007813-0.03125-0.007812-0.023438c-0.98438-3.293-2.7734-6.2344-5.1406-8.6016-3.7031-3.7031-8.8164-5.9922-14.469-5.9922-5.6484 0-10.766 2.2891-14.469 5.9922s-5.9922 8.8203-5.9922 14.469 2.2891 10.766 5.9922 14.469 8.8164 5.9922 14.469 5.9922zm45.164-11.668v1.0273c0 2.2852-0.93359 4.3633-2.4375 5.8672-1.5078 1.5039-3.582 2.4375-5.8672 2.4375-2.2852 0-4.3633-0.93359-5.8672-2.4375-1.5078-1.5078-2.4375-3.582-2.4375-5.8672v-1.0273h-5.082c-1.2695 3.3828-3.2461 6.418-5.75 8.9219-4.5312 4.5312-10.797 7.3398-17.719 7.3398-6.918 0-13.184-2.8047-17.719-7.3398-4.5312-4.5312-7.3398-10.797-7.3398-17.719 0-6.918 2.8047-13.184 7.3398-17.719 4.5312-4.5312 10.797-7.3398 17.719-7.3398 6.918 0 13.184 2.8047 17.719 7.3398 2.5039 2.5039 4.4805 5.543 5.75 8.9219h40.676c2.4219 0 4.6211 0.98828 6.2148 2.582s2.582 3.793 2.582 6.2148-0.98828 4.6211-2.582 6.2148c-1.5742 1.5742-3.7422 2.5586-6.1328 2.5781v1.0312c0 2.2852-0.93359 4.3633-2.4375 5.8672-1.5039 1.5039-3.582 2.4375-5.8672 2.4375s-4.3633-0.93359-5.8672-2.4375c-1.5039-1.5078-2.4375-3.582-2.4375-5.8672v-1.0273zm-12.02 0v1.0273c0 1.0156 0.41797 1.9453 1.0938 2.6172s1.6016 1.0938 2.6211 1.0938c1.0156 0 1.9453-0.42188 2.6211-1.0938 0.67188-0.67188 1.0938-1.6016 1.0938-2.6172v-1.0273zm19.062 0v1.0273c0 1.0156 0.41797 1.9453 1.0938 2.6172 0.67188 0.67188 1.6016 1.0938 2.6172 1.0938 1.0195 0 1.9453-0.42188 2.6211-1.0938 0.67188-0.67188 1.0938-1.6016 1.0938-2.6172v-1.0273zm-27.5-4.5938h39.438c1.1523 0 2.2031-0.47266 2.9688-1.2344 0.76172-0.76172 1.2344-1.8125 1.2344-2.9688 0-1.1523-0.47266-2.2031-1.2344-2.9688-0.76172-0.76172-1.8125-1.2344-2.9688-1.2344h-39.438c0.23047 1.3672 0.35156 2.7695 0.35156 4.1992 0 1.4297-0.12109 2.8359-0.35156 4.1992zm-31.281-14.812c2.9297 0 5.582 1.1875 7.5 3.1094 1.9219 1.9219 3.1094 4.5703 3.1094 7.5 0 2.9297-1.1875 5.582-3.1094 7.5-1.9219 1.9219-4.5703 3.1094-7.5 3.1094s-5.582-1.1875-7.5-3.1094c-1.9219-1.9219-3.1094-4.5703-3.1094-7.5 0-2.9297 1.1875-5.582 3.1094-7.5 1.9219-1.9219 4.5703-3.1094 7.5-3.1094zm4.2539 6.3555c-1.0898-1.0898-2.5938-1.7617-4.2539-1.7617s-3.1641 0.67188-4.2539 1.7617c-1.0898 1.0898-1.7617 2.5938-1.7617 4.2539s0.67188 3.1641 1.7617 4.2539c1.0898 1.0898 2.5938 1.7617 4.2539 1.7617s3.1641-0.67188 4.2539-1.7617c1.0898-1.0898 1.7617-2.5938 1.7617-4.2539s-0.67578-3.1641-1.7617-4.2539z"></path></g>
</svg>
</g><g opacity="1" transform="rotate(0 63.3198 538.7053)">
<svg width="390.7785" height="50" x="63.3198" y="538.7053" version="1.1" preserveAspectRatio="none" viewBox="0.08 -28.64 228.84 29.28">
  <g transform="matrix(1 0 0 1 0 0)" class="companyName"><path id="id-D6z1nYkh8" d="M29.88-18.80Q29.88-15.08 27.90-12.30Q25.92-9.52 22.32-8.16L22.32-8.16L27 0L17.20 0L13.24-7.04L10.92-7.04L9.52 0L0.08 0L5.68-28L18.24-28Q23.76-28 26.82-25.58Q29.88-23.16 29.88-18.80L29.88-18.80ZM20.32-17.88Q20.32-20.72 16.80-20.72L16.80-20.72L13.64-20.72L12.32-14.16L16.20-14.16Q18.16-14.16 19.24-15.14Q20.32-16.12 20.32-17.88L20.32-17.88Z M56.80-20.88L43.32-20.88L42.68-17.60L54.52-17.60L53.16-10.80L41.28-10.80L40.56-7.12L54.60-7.12L53.16 0L29.88 0L35.48-28L58.24-28L56.80-20.88Z M80.80-28L90-28L84.40 0L76.64 0L68.60-13.04L66 0L56.80 0L62.40-28L70.16-28L78.20-14.96L80.80-28Z M95.04 0L99.16-20.68L90.96-20.68L92.44-28L118.28-28L116.80-20.68L108.60-20.68L104.48 0L95.04 0Z M142.04-20.88L128.56-20.88L127.92-17.60L139.76-17.60L138.40-10.80L126.52-10.80L125.80-7.12L139.84-7.12L138.40 0L115.12 0L120.72-28L143.48-28L142.04-20.88Z M163.36 0L162.44-4.88L151.76-4.88L148.96 0L139.00 0L156.84-28L166.12-28L172.76 0L163.36 0ZM155.64-11.68L161.12-11.68L159.76-18.84L155.64-11.68Z M185.40 0.64Q181.76 0.64 178.56-0.14Q175.36-0.92 173.28-2.20L173.28-2.20L176.92-9.16Q181.44-6.56 186.36-6.56L186.36-6.56Q188.16-6.56 189.12-7Q190.08-7.44 190.08-8.20L190.08-8.20Q190.08-8.92 189.10-9.36Q188.12-9.80 186-10.32L186-10.32Q183.20-11.04 181.36-11.78Q179.52-12.52 178.14-14.06Q176.76-15.60 176.76-18.12L176.76-18.12Q176.76-21.28 178.46-23.66Q180.16-26.04 183.36-27.34Q186.56-28.64 190.92-28.64L190.92-28.64Q194.04-28.64 196.74-28.02Q199.44-27.40 201.40-26.24L201.40-26.24L198-19.36Q196.36-20.40 194.38-20.92Q192.40-21.44 190.32-21.44L190.32-21.44Q188.36-21.44 187.28-20.88Q186.20-20.32 186.20-19.56L186.20-19.56Q186.20-18.80 187.18-18.36Q188.16-17.92 190.40-17.40L190.40-17.40Q193.12-16.76 194.98-16.04Q196.84-15.32 198.20-13.80Q199.56-12.28 199.56-9.80L199.56-9.80Q199.56-6.68 197.84-4.32Q196.12-1.96 192.92-0.66Q189.72 0.64 185.40 0.64L185.40 0.64Z M227.48-20.88L214-20.88L213.36-17.60L225.20-17.60L223.84-10.80L211.96-10.80L211.24-7.12L225.28-7.12L223.84 0L200.56 0L206.16-28L228.92-28L227.48-20.88Z"/></g>
</svg>
</g></svg></svg>